<svg width="371" height="398" viewBox="0 0 371 398" fill="none" xmlns="http://www.w3.org/2000/svg">
<path d="M113.653 94.5022C101.631 121.939 93.3114 150.443 89.5003 180.171C85.2627 213.227 85.9416 245.967 97.0516 277.856C98.1803 281.096 99.6781 284.207 101.194 287.831C102.341 278.93 102.97 270.57 104.558 262.396C108.696 241.084 118.887 222.844 133.585 206.965C141.618 198.286 149.31 189.293 157.263 180.538C175.41 160.562 179.549 137.355 173.477 111.671C167.737 87.3946 161.975 63.1217 156.519 38.7806C154.392 29.289 153.83 19.5871 157.049 10.1528C158.236 6.67578 160.208 3.46705 161.838 0.103027C163.161 8.55923 164.442 16.4717 165.621 24.3995C166.319 29.0956 168.783 30.2138 173.478 29.8859C213.801 27.0701 251.346 36.2444 285.138 58.3766C334.291 90.5701 362.629 136.145 369.147 194.705C378.773 281.19 325.623 361.64 243.254 388.599C229.933 392.959 215.639 394.315 201.844 397.286C198.535 397.999 197.071 396.782 195.635 394.09C186.154 376.31 183.922 357.494 187.617 337.9C190.806 320.99 198.691 305.958 206.743 290.974C215.083 275.456 223.502 259.948 230.991 244.015C236.393 232.522 238.633 220.091 237.343 206.853C237.962 208.363 238.717 209.832 239.18 211.388C244.173 228.177 242.859 244.748 236.395 260.776C232.424 270.622 227.431 280.065 222.696 289.59C214.387 306.305 206.259 323.093 203.488 341.801C202.702 347.106 202.867 352.552 203.139 358.061C211.803 343.863 223.81 333.013 236.109 322.687C272.361 292.252 280.338 253.565 270.039 209.424C263.776 182.58 249.494 159.558 234.223 135.976C230.353 164.62 213.671 185.039 195.942 204.931C183.76 218.599 170.884 231.796 160.023 246.465C133.123 282.799 133.533 328.702 159.865 365.648C160.695 366.814 161.423 368.053 161.524 370.135C159.231 368.758 156.841 367.518 154.659 365.983C118.641 340.641 91.5689 308.442 78.5437 265.699C72.3673 245.43 72.7035 224.531 74.2998 203.737C76.895 169.932 86.3646 138.069 103.223 108.54C106.026 103.632 109.22 98.9477 112.725 94.17C113.362 94.2874 113.508 94.3948 113.653 94.5022Z" fill="#46A04A"/>
<path d="M39.0642 102.069C60.3477 74.6683 86.7385 54.6933 119.116 42.395C67.146 97.6915 43.2999 162.268 56.2612 237.812C69.2194 313.339 112.451 366.103 181.926 397.842C111.426 393.864 56.3585 362.926 23.5888 299.95C-11.7671 232.005 -5.85493 165.164 39.0642 102.069Z" fill="#46A14A"/>
<path d="M113.017 93.9963C113.128 93.6371 113.438 93.4616 113.747 93.2861C113.809 93.5365 113.871 93.7869 113.793 94.2697C113.508 94.3948 113.362 94.2874 113.017 93.9963Z" fill="#46A04A"/>
</svg>
